<svg width="12" height="6" viewBox="0 0 12 6" fill="none" xmlns="http://www.w3.org/2000/svg">
<path d="M11.1276 0.963743C11.0522 0.908615 10.9624 0.864859 10.8635 0.834998C10.7646 0.805138 10.6585 0.789764 10.5514 0.789764C10.4443 0.789764 10.3382 0.805138 10.2393 0.834998C10.1404 0.864859 10.0506 0.908615 9.97516 0.963743L6.25805 3.65754C6.1826 3.71267 6.09284 3.75642 5.99394 3.78628C5.89504 3.81614 5.78896 3.83152 5.68182 3.83152C5.57468 3.83152 5.4686 3.81614 5.3697 3.78628C5.2708 3.75642 5.18103 3.71267 5.10558 3.65754L1.38847 0.963743C1.31302 0.908615 1.22326 0.864859 1.12436 0.834998C1.02546 0.805138 0.91938 0.789764 0.81224 0.789764C0.705099 0.789764 0.599019 0.805138 0.500118 0.834998C0.401218 0.864859 0.311455 0.908615 0.236006 0.963743C0.0848455 1.07394 0 1.22301 0 1.3784C0 1.53378 0.0848455 1.68286 0.236006 1.79306L3.96123 4.49273C4.41776 4.82316 5.0366 5.00877 5.68182 5.00877C6.32704 5.00877 6.94588 4.82316 7.4024 4.49273L11.1276 1.79306C11.2788 1.68286 11.3636 1.53378 11.3636 1.3784C11.3636 1.22301 11.2788 1.07394 11.1276 0.963743Z" fill="white"/>
</svg>
