<svg width="11" height="5" viewBox="0 0 11 5" fill="none" xmlns="http://www.w3.org/2000/svg">
<path d="M9.81271 0.171373C9.74618 0.11707 9.66702 0.0739695 9.57981 0.0445564C9.4926 0.0151432 9.39905 0 9.30457 0C9.21009 0 9.11655 0.0151432 9.02933 0.0445564C8.94212 0.0739695 8.86296 0.11707 8.79643 0.171373L5.51856 2.82482C5.45202 2.87913 5.37287 2.92223 5.28566 2.95164C5.19844 2.98105 5.1049 2.9962 5.01042 2.9962C4.91594 2.9962 4.82239 2.98105 4.73518 2.95164C4.64796 2.92223 4.56881 2.87913 4.50227 2.82482L1.2244 0.171373C1.15787 0.11707 1.07871 0.0739695 0.991499 0.0445564C0.904285 0.0151432 0.81074 0 0.71626 0C0.62178 0 0.528235 0.0151432 0.441021 0.0445564C0.353807 0.0739695 0.274651 0.11707 0.208118 0.171373C0.0748196 0.279922 0 0.426761 0 0.579819C0 0.732876 0.0748196 0.879715 0.208118 0.988265L3.49315 3.64751C3.89573 3.97299 4.44144 4.15581 5.01042 4.15581C5.57939 4.15581 6.12511 3.97299 6.52768 3.64751L9.81271 0.988265C9.94601 0.879715 10.0208 0.732876 10.0208 0.579819C10.0208 0.426761 9.94601 0.279922 9.81271 0.171373Z" fill="#151515"/>
</svg>
