<svg width="35" height="36" viewBox="0 0 35 36" fill="none" xmlns="http://www.w3.org/2000/svg">
<path d="M7.04861 15.4064C9.84861 20.9998 14.35 25.5753 19.8625 28.4213L24.1403 24.0633C24.675 23.5197 25.4431 23.3616 26.1139 23.579C28.2917 24.3103 30.6347 24.7056 33.0556 24.7056C34.1347 24.7056 35 25.5851 35 26.6821V33.5996C35 34.6966 34.1347 35.5761 33.0556 35.5761C14.7972 35.5761 0 20.5353 0 1.97645C0 0.87952 0.875 0 1.94444 0H8.75C9.82917 0 10.6944 0.87952 10.6944 1.97645C10.6944 4.43713 11.0833 6.81875 11.8028 9.03237C12.0167 9.71425 11.8611 10.4949 11.3264 11.0385L7.04861 15.4064Z" fill="#175676"/>
</svg>
