<svg width="35" height="21" viewBox="0 0 35 21" fill="none" xmlns="http://www.w3.org/2000/svg">
<path d="M2.5611 0.336426C2.05764 0.336426 1.59556 0.47479 1.20044 0.702488L16.3528 12.429C17.0465 12.9664 17.9814 12.9664 18.6736 12.429L33.7993 0.702488C33.4042 0.47479 32.9422 0.336426 32.4387 0.336426H2.56072H2.5611ZM0.146783 1.91042C0.0553806 2.15147 0 2.40858 0 2.67902V18.2977C0 18.7681 0.154519 19.2003 0.41355 19.5666L11.258 10.5252L0.146783 1.91042ZM34.8532 1.91042L23.7687 10.5132L34.5865 19.5672C34.8455 19.2008 35 18.7686 35 18.2982V2.67957C35 2.40911 34.9446 2.152 34.8532 1.91098V1.91042ZM22.4623 11.5375L19.7678 13.6241C18.4646 14.6354 16.5492 14.6341 15.2461 13.6241L12.565 11.5498L1.80059 20.5305C2.04146 20.5986 2.29482 20.6403 2.561 20.6403H32.4389C32.7048 20.6403 32.9585 20.5986 33.1994 20.5305L22.4623 11.5372L22.4623 11.5375Z" fill="#175676"/>
</svg>
