<svg width="35" height="43" viewBox="0 0 35 43" fill="none" xmlns="http://www.w3.org/2000/svg">
<path fill-rule="evenodd" clip-rule="evenodd" d="M18.7056 42.7438C18.9405 42.6478 19.1507 42.5082 19.3222 42.3332C23.3627 38.2936 34.9662 25.7869 34.9662 17.1915C35.112 15.0354 34.7848 12.8741 34.0046 10.8355C33.2239 8.79658 32.0053 6.92105 30.4209 5.31948C28.8364 3.7179 26.9179 2.42183 24.7777 1.50863C22.6374 0.595359 20.3194 0.0826416 17.9599 0.000616521C15.5491 -0.0185697 13.1597 0.410238 10.9356 1.2612C8.71149 2.11211 6.69958 3.36684 5.02175 4.95024C3.34339 6.53365 2.03469 8.41187 1.17376 10.4721C0.312825 12.5317 -0.0814649 14.7305 0.0139697 16.934C0.0139697 25.7871 12.3691 38.2937 16.5976 42.3335C16.7696 42.5086 16.9798 42.6482 17.2142 42.7441C17.4491 42.8396 17.7034 42.889 17.9603 42.889C18.2172 42.889 18.4712 42.8392 18.7056 42.7438ZM25.3346 14.7852C25.3346 18.7491 21.8222 21.9623 17.4892 21.9623C13.1563 21.9623 9.64386 18.7491 9.64386 14.7852C9.64386 10.8214 13.1563 7.60768 17.4892 7.60768C21.8222 7.60768 25.3346 10.8214 25.3346 14.7852Z" fill="#175676"/>
</svg>
