<svg width="18" height="17" viewBox="0 0 18 17" fill="none" xmlns="http://www.w3.org/2000/svg">
<path d="M15.4868 10.7262C15.053 10.3539 14.477 10.1466 13.8783 10.1474C13.2795 10.1482 12.7041 10.3569 12.2715 10.7303L10.8397 11.8186C9.67097 11.3824 8.6093 10.7421 7.71564 9.93468C6.82198 9.12724 6.11393 8.1685 5.63214 7.11353L6.83411 5.82594C7.24694 5.43492 7.47758 4.91583 7.47842 4.37585C7.47926 3.83586 7.25023 3.31619 6.83862 2.92413C6.83862 2.92413 5.44734 1.29567 5.42405 1.27466C4.99544 0.885501 4.41431 0.664086 3.80622 0.658253C3.19813 0.65242 2.61191 0.862637 2.17422 1.24349L1.31031 1.92116C-4.48845 7.4849 10.4753 20.9897 16.6354 15.678L17.3206 14.9665C17.7557 14.5727 18 14.0394 18 13.4834C18 12.9274 17.7557 12.394 17.3206 12.0003C17.2958 11.982 15.4868 10.7262 15.4868 10.7262Z" fill="black"/>
</svg>
